<?xml version="1.0" encoding="utf-8"?>
<!-- Generator: Adobe Illustrator 23.0.1, SVG Export Plug-In . SVG Version: 6.00 Build 0)  -->
<svg version="1.1" xmlns="http://www.w3.org/2000/svg" xmlns:xlink="http://www.w3.org/1999/xlink" x="0px" y="0px"
	 viewBox="0 0 85 40" style="enable-background:new 0 0 85 40;" xml:space="preserve">
<style type="text/css">
	.st0{display:none;}
	.st1{display:inline;}
	.st2{fill:#8047F8;}
	.st3{fill-rule:evenodd;clip-rule:evenodd;fill:#8047F8;}
	.st4{fill:#403937;}
</style>
<g id="Camada_1" class="st0">
	<g id="Logo" class="st1">
		<path class="st2" d="M24.2,4.1c-0.3-0.5-0.8-0.5-1.3-0.5c-0.1,0-0.1,0-0.2,0c0,0-0.1,0-0.2,0c-0.2,0-0.5,0-0.6-0.2
			c-0.1-0.2-0.1-0.6-0.1-1c0-0.1,0-0.2,0-0.3c0-0.8-0.1-1.6-0.4-1.9C21.2,0,20.5,0,19.9,0.1c-0.2,0-0.4,0-0.6,0H5.8
			c-0.3,0-0.6,0-0.8,0C4.4,0,3.9,0,3.5,0.1C3,0.3,2.9,1.2,2.9,2.2l0,0c0,0.8-0.2,1.3-0.8,1.3C1.3,3.4,0.6,3.4,0.3,4.1
			c-0.4,0.8-0.3,1.6-0.2,3c0,0.2,0,0.4,0.1,0.7h24.2c0-0.2,0-0.3,0-0.5C24.6,6,24.7,4.8,24.2,4.1z"/>
		<path class="st3" d="M2.1,9.2c0.4,5.1,0.8,10.3,1.1,15.4l0,0c0.2,2.8,0.4,5.6,0.6,8.4h0.8c0.1,0.4,0.1,1,0.2,1.5
			c0.1,1.2,0.3,2.4,0.4,3.2h0.1c0.8-0.3,6.2-2.6,6.2-11.9c0,0,0-0.1,0-0.1h-1.3c-0.1,0-0.1,0-0.2-0.1c-0.1,0-0.1-0.1-0.1-0.2
			c-0.1-0.3-0.2-0.7-0.3-1c-0.8,0.4-1.4,1.1-1.8,2c-0.4-0.8-0.4-1.8-0.1-2.7c0.3-0.9,0.8-1.6,1.6-2.1c0-2.7,1-5.3,2.8-7.3l0,0
			c0.1,0,0.1-0.1,0.2-0.1c0,0,0.1,0,0.1,0c0,0,0.1,0,0.1,0.1c1.8,2,2.9,4.7,2.8,7.4c0.8,0.5,1.4,1.2,1.6,2.1
			c0.3,0.9,0.2,1.8-0.2,2.7c-0.4-0.8-1-1.5-1.8-2c0,0.3-0.1,0.7-0.3,1c0,0.1-0.1,0.2-0.2,0.2h-1.4c0,0,0,0,0,0l0,0v0c0,0,0,0,0,0
			c0,9.5,5.8,11.7,6.3,11.9h0.2c0-0.8,0.2-1.8,0.3-2.8c0.1-0.7,0.2-1.4,0.2-1.9h0.8c0.3-3.5,0.5-7,0.8-10.5l0,0l0,0
			c0.3-4.5,0.7-8.9,1-13.4H2.1C2.1,9,2.1,9.1,2.1,9.2z M12.3,14.3L12.3,14.3L12.3,14.3L12.3,14.3z"/>
		<path class="st4" d="M31.3,5.7c0-1.3,0.4-2.2,1.3-2.9c0.9-0.7,2.2-1.1,4-1.1c1.2,0,2.2,0.1,3,0.3v3.3C38.7,5,37.8,4.9,37,4.9
			c-0.9,0-1.4,0.1-1.7,0.3c-0.3,0.2-0.4,0.5-0.4,0.9v8c0,0.8,0.6,1.1,1.8,1.1c1.2,0,2.2-0.1,3-0.4V18c-0.9,0.2-1.9,0.4-3.1,0.4
			c-1.8,0-3.1-0.3-4-1c-0.9-0.7-1.3-1.7-1.3-2.9V5.7z"/>
		<path class="st4" d="M46.6,8c0-0.6-0.3-0.9-1-0.9c-0.7,0-1,0.3-1,0.9v6.6c0,0.6,0.3,0.9,1,0.9c0.7,0,1-0.3,1-0.9V8z M41.1,7.8
			c0-1.2,0.4-2.1,1.1-2.8c0.8-0.7,1.9-1,3.4-1c1.5,0,2.6,0.3,3.4,1c0.8,0.7,1.1,1.6,1.1,2.8v6.8c0,1.2-0.4,2.1-1.1,2.8
			c-0.7,0.7-1.9,1-3.4,1c-1.5,0-2.6-0.3-3.4-1c-0.7-0.7-1.1-1.6-1.1-2.8V7.8z"/>
		<path class="st4" d="M52.4,4.1c0-2.7,1.4-4,4.2-4c0.4,0,0.8,0,1.3,0.1v2.8c-0.3,0-0.5,0-0.7,0c-0.8,0-1.2,0.4-1.2,1.1v0.2H58v2.8
			h-1.9v11.2h-3.6V7.1h-1.4V4.3h1.4V4.1z"/>
		<path class="st4" d="M59.5,4.1c0-2.7,1.4-4,4.2-4c0.4,0,0.8,0,1.3,0.1v2.8c-0.3,0-0.5,0-0.7,0c-0.8,0-1.2,0.4-1.2,1.1v0.2H65v2.8
			h-1.9v11.2h-3.6V7.1h-1.4V4.3h1.4V4.1z"/>
		<path class="st4" d="M65.8,14.3V7.8c0-1.2,0.4-2.1,1.1-2.8c0.7-0.7,1.9-1,3.4-1c2.9,0,4.4,1.3,4.4,3.8v4.8h-5.4V14
			c0,0.5,0.1,0.8,0.4,1c0.3,0.2,0.8,0.3,1.7,0.3c0.9,0,1.9-0.2,2.9-0.5v3.1c-1.1,0.3-2.3,0.5-3.6,0.5C67.5,18.4,65.8,17,65.8,14.3z
			 M69.3,9.9h2.1v-2c0-0.6-0.3-0.9-1-0.9c-0.7,0-1,0.3-1,0.9V9.9z"/>
		<path class="st4" d="M76.1,14.3V7.8c0-1.2,0.4-2.1,1.1-2.8c0.7-0.7,1.9-1,3.4-1c2.9,0,4.4,1.3,4.4,3.8v4.8h-5.4V14
			c0,0.5,0.1,0.8,0.4,1c0.3,0.2,0.8,0.3,1.7,0.3c0.9,0,1.9-0.2,2.9-0.5v3.1c-1.1,0.3-2.3,0.5-3.6,0.5C77.7,18.4,76.1,17,76.1,14.3z
			 M79.5,9.9h2.1v-2c0-0.6-0.3-0.9-1-0.9c-0.7,0-1,0.3-1,0.9V9.9z"/>
		<path class="st4" d="M37,27c0-1.2-0.6-1.8-1.9-1.8h-2v10.6h2c1.2,0,1.9-0.6,1.9-1.8V27z M31.8,24h3.4c1,0,1.8,0.3,2.4,0.8
			c0.5,0.5,0.8,1.2,0.8,2.1v7.2c0,0.9-0.3,1.6-0.8,2.2c-0.5,0.5-1.3,0.8-2.3,0.8h-3.5V24z"/>
		<path class="st4" d="M40.7,34.3v-5.4c0-0.9,0.3-1.7,0.8-2.2c0.5-0.6,1.3-0.8,2.4-0.8c1.1,0,1.9,0.3,2.4,0.8
			c0.5,0.5,0.8,1.3,0.8,2.2v3.4h-5v2c0,0.6,0.2,1,0.5,1.3c0.4,0.3,0.9,0.4,1.7,0.4c0.8,0,1.6-0.1,2.4-0.4v1.3
			c-0.7,0.2-1.4,0.3-2.3,0.3C41.9,37.2,40.7,36.2,40.7,34.3z M42.1,31.1h3.6v-2.2c0-1.2-0.6-1.8-1.8-1.8c-1.2,0-1.8,0.6-1.8,1.8
			V31.1z"/>
		<path class="st4" d="M49.4,23.1h1.4v14h-1.4V23.1z"/>
		<path class="st4" d="M54.1,24.8c-0.6,0-0.8-0.3-0.8-0.9c0-0.6,0.3-0.9,0.8-0.9c0.6,0,0.9,0.3,0.9,0.9C55,24.5,54.7,24.8,54.1,24.8
			z M53.5,26.1h1.4v11h-1.4V26.1z"/>
		<path class="st4" d="M62,26h1.4l-2.5,11.1h-2L56.5,26h1.4l1.1,5.1l1,5C60.4,34,61,30.6,62,26z"/>
		<path class="st4" d="M64.9,34.3v-5.4c0-0.9,0.3-1.7,0.8-2.2c0.5-0.6,1.3-0.8,2.4-0.8c1.1,0,1.9,0.3,2.4,0.8
			c0.5,0.5,0.8,1.3,0.8,2.2v3.4h-5v2c0,0.6,0.2,1,0.5,1.3c0.4,0.3,0.9,0.4,1.7,0.4c0.8,0,1.6-0.1,2.4-0.4v1.3
			c-0.7,0.2-1.4,0.3-2.3,0.3C66.1,37.2,64.9,36.2,64.9,34.3z M66.2,31.1h3.6v-2.2c0-1.2-0.6-1.8-1.8-1.8c-1.2,0-1.8,0.6-1.8,1.8
			V31.1z"/>
		<path class="st4" d="M77.1,26h0.5v1.3H77c-0.5,0-0.9,0.1-1.3,0.4c-0.1,0.1-0.4,0.3-0.8,0.5v8.9h-1.4V26h1.3v0.8
			c0,0,0.1-0.1,0.3-0.2c0.2-0.1,0.3-0.2,0.3-0.2c0,0,0.1-0.1,0.3-0.2c0.1-0.1,0.2-0.1,0.3-0.1c0.1,0,0.2-0.1,0.3-0.1
			C76.5,26,76.8,26,77.1,26z"/>
		<path class="st4" d="M83.6,26H85l-3,14h-1.3l0.6-2.9h-0.7L78.1,26h1.4l1.2,5.5l0.9,4.6c0.3-1.5,0.5-3.1,0.9-4.6L83.6,26z"/>
	</g>
</g>
<g id="Camada_2">
	<path class="st4" d="M30.6,18.2l0.1-2.7l0.4-9.3l0.2-6.1c0.7,0,1.3,0,1.7,0c0.3,0,0.9,0,1.6,0c0.1,0.8,0.1,1.3,0.1,1.7
		c0,0.4,0.1,1.2,0.3,2.3c0.1,1.1,0.3,2.1,0.3,3c0.1,0.8,0.2,2.3,0.4,4.3c0.2-1.4,0.3-2.6,0.5-3.6c0.1-1,0.3-2.1,0.5-3.4
		c0.2-1.3,0.4-2.1,0.4-2.5c0.1-0.4,0.1-1,0.2-1.8c0.6,0,1.2,0,1.8,0c0.4,0,0.9,0,1.6,0c-0.1,3-0.1,5.6-0.1,7.7
		c-0.1,4.2-0.1,7.1-0.1,8.7c0,0.3,0,0.9,0,1.8c-0.5,0-0.9,0-1.1,0c-0.3,0-0.7,0-1.1,0c0-0.8,0.1-2.7,0.1-5.7c0-3,0.1-4.9,0.1-5.8
		c0-0.4,0-0.9,0-1.5l-0.8,5.4l-1.1,7.6c-0.5,0-0.9,0-1.1,0c-0.2,0-0.6,0-1.1,0l-0.7-7.3L33.2,7c0-0.2,0-0.3-0.1-0.6
		c0-0.2-0.1-0.6-0.1-1.2L32.9,9l-0.2,7.6l0,1.7c-0.5,0-0.9,0-1,0C31.5,18.2,31.1,18.2,30.6,18.2z"/>
	<path class="st4" d="M42.5,8.5c0.1-0.9,0.1-1.5,0.1-1.8c0-0.3,0.1-0.9,0.1-1.6c1.1-0.6,2.1-0.8,2.9-0.8c0.5,0,0.9,0.1,1.3,0.4
		c0.4,0.2,0.7,0.6,0.9,1.1c0.2,0.5,0.3,1.3,0.3,2.2c0,0.5,0,1.6-0.1,3.4c-0.1,1.7-0.1,4-0.1,6.8c-0.4,0-0.8,0-1.2,0
		c-0.4,0-0.8,0-1.2,0c0.1-1,0.1-3,0.2-6c-0.2,0.2-0.3,0.3-0.4,0.3c-0.1,0.1-0.2,0.2-0.4,0.3c-0.2,0.1-0.4,0.3-0.5,0.4
		c-0.1,0.1-0.2,0.2-0.3,0.4S44,13.9,44,14.1c0,0.2-0.1,0.3-0.1,0.5c0,0.3,0.1,0.6,0.2,0.8s0.3,0.3,0.5,0.3c0.1,0,0.2,0,0.3,0
		c0.1,0,0.2-0.1,0.4-0.2c-0.1,0.7-0.3,1.7-0.4,3c-0.3,0.1-0.7,0.2-1,0.2c-0.5,0-0.9-0.2-1.2-0.5c-0.3-0.3-0.6-0.8-0.8-1.5
		c-0.2-0.7-0.3-1.4-0.3-2c0-0.4,0-0.8,0.1-1.2c0.1-0.4,0.2-0.8,0.3-1.2c0.1-0.4,0.3-0.7,0.5-1c0.2-0.3,0.4-0.5,0.8-0.8
		c0.3-0.2,0.7-0.5,1.2-0.7c0.2-0.1,0.4-0.2,0.6-0.3c0.2-0.1,0.3-0.2,0.4-0.3c0.1-0.1,0.1-0.2,0.2-0.3c0-0.1,0.1-0.2,0.1-0.3
		c0-0.1,0-0.2,0-0.4c0-0.3-0.1-0.6-0.2-0.8c-0.1-0.2-0.3-0.3-0.6-0.3C44.3,7.2,43.5,7.7,42.5,8.5z"/>
	<path class="st4" d="M49.3,18.2l0.1-2.9l0.2-9.9l0.1-5.3c0.6,0,1,0,1.2,0c0.4,0,0.8,0,1.2,0L52,4.2l-0.2,10.1l0,4
		c-0.4,0-0.8,0-1.2,0L49.3,18.2z"/>
	<path class="st4" d="M53.6,8.5c0.1-0.9,0.1-1.5,0.1-1.8c0-0.3,0.1-0.9,0.1-1.6C55,4.6,56,4.3,56.8,4.3c0.5,0,0.9,0.1,1.3,0.4
		c0.4,0.2,0.7,0.6,0.9,1.1c0.2,0.5,0.3,1.3,0.3,2.2c0,0.5,0,1.6-0.1,3.4s-0.1,4-0.1,6.8c-0.4,0-0.8,0-1.2,0c-0.4,0-0.8,0-1.2,0
		c0.1-1,0.1-3,0.2-6c-0.2,0.2-0.3,0.3-0.4,0.3c-0.1,0.1-0.2,0.2-0.4,0.3c-0.2,0.1-0.4,0.3-0.5,0.4c-0.1,0.1-0.2,0.2-0.3,0.4
		c-0.1,0.2-0.2,0.3-0.2,0.5c0,0.2-0.1,0.3-0.1,0.5c0,0.3,0.1,0.6,0.2,0.8s0.3,0.3,0.5,0.3c0.1,0,0.2,0,0.3,0c0.1,0,0.2-0.1,0.4-0.2
		c-0.1,0.7-0.3,1.7-0.4,3c-0.3,0.1-0.7,0.2-1,0.2c-0.5,0-0.9-0.2-1.2-0.5c-0.3-0.3-0.6-0.8-0.8-1.5s-0.3-1.4-0.3-2
		c0-0.4,0-0.8,0.1-1.2c0.1-0.4,0.2-0.8,0.3-1.2c0.1-0.4,0.3-0.7,0.5-1c0.2-0.3,0.4-0.5,0.8-0.8c0.3-0.2,0.7-0.5,1.2-0.7
		c0.2-0.1,0.4-0.2,0.6-0.3c0.2-0.1,0.3-0.2,0.4-0.3c0.1-0.1,0.1-0.2,0.2-0.3c0-0.1,0.1-0.2,0.1-0.3c0-0.1,0-0.2,0-0.4
		c0-0.3-0.1-0.6-0.2-0.8c-0.1-0.2-0.3-0.3-0.6-0.3C55.5,7.2,54.6,7.7,53.6,8.5z"/>
	<path class="st4" d="M60.4,18.2c0.1-2,0.2-4.2,0.3-6.7c0.1-2.4,0.1-4.7,0.1-6.9c0.5,0,0.9,0,1.2,0c0.4,0,0.8,0,1.2,0l-0.1,1.8
		c0.1-0.3,0.2-0.6,0.3-0.8c0.1-0.2,0.2-0.4,0.4-0.6c0.1-0.2,0.3-0.3,0.4-0.4c0.2-0.1,0.3-0.2,0.5-0.3c0.2-0.1,0.4-0.1,0.6-0.1
		c0.3,0,0.6,0.1,0.8,0.2c0.3,0.1,0.5,0.3,0.7,0.6c0.2,0.3,0.3,0.6,0.5,0.9c0.1,0.4,0.2,0.8,0.2,1.2c0,0.4,0.1,0.9,0.1,1.3
		c0,0.3,0,1.1,0,2.2l-0.1,4.8c0,0.9,0,1.8,0,2.6c-0.4,0-0.8,0-1.1,0c-0.5,0-0.9,0-1.3,0c0-0.8,0.1-2,0.1-3.6c0-1.6,0.1-2.7,0.1-3.4
		c0-1-0.1-1.7-0.3-2.1c-0.2-0.4-0.4-0.6-0.7-0.6c-0.2,0-0.4,0.2-0.7,0.5c-0.2,0.3-0.4,0.8-0.5,1.5c-0.1,0.6-0.2,1.7-0.2,3.2
		c0,1.5-0.1,3-0.1,4.5c-0.4,0-0.8,0-1.2,0C61.3,18.2,60.9,18.2,60.4,18.2z"/>
	<path class="st4" d="M68.7,18c0-0.4,0-0.8,0-1.2c0-0.4,0-1-0.1-1.8l0-1c0.4,0.3,0.7,0.6,1,0.8c0.3,0.2,0.5,0.2,0.8,0.2
		c0.2,0,0.4,0,0.5-0.1c0.1-0.1,0.2-0.2,0.3-0.3c0.1-0.2,0.1-0.3,0.1-0.5c0-0.1,0-0.3-0.1-0.4c0-0.1-0.1-0.3-0.3-0.6
		c-0.3-0.5-0.6-1-0.9-1.4c-0.2-0.4-0.4-0.8-0.6-1.2c-0.1-0.3-0.2-0.7-0.3-1.1C69,9,69,8.6,69,8.2c0-0.7,0.1-1.4,0.3-2.1
		s0.5-1.1,0.8-1.4c0.4-0.3,0.8-0.4,1.3-0.4c0.6,0,1.3,0.2,2.1,0.5l0.1,3.7c-0.5-0.4-0.9-0.6-1.4-0.6c-0.3,0-0.5,0.1-0.7,0.2
		s-0.2,0.4-0.2,0.7c0,0.1,0,0.2,0,0.3c0,0.1,0,0.2,0.1,0.3c0,0.1,0.1,0.2,0.2,0.3c0.1,0.1,0.2,0.3,0.4,0.7c0.2,0.4,0.4,0.7,0.6,0.9
		c0.2,0.4,0.4,0.8,0.5,1.1c0.1,0.3,0.2,0.7,0.3,1.1c0.1,0.4,0.1,0.8,0.1,1.2c0,0.6-0.1,1.2-0.2,1.7c-0.1,0.5-0.3,1-0.6,1.3
		c-0.3,0.4-0.6,0.6-0.9,0.7c-0.3,0.1-0.7,0.2-1,0.2c-0.2,0-0.5,0-0.9-0.1C69.6,18.4,69.2,18.2,68.7,18z"/>
	<path class="st4" d="M74.6,18.2c0.1-1.1,0.1-2.1,0.1-2.8c0-1,0.1-2.2,0.1-3.6l0.1-3.2c0-1.4,0-2.8,0.1-4.1c0-1.6,0-3.1,0-4.5
		c0.6,0,1,0,1.3,0c0.3,0,0.7,0,1.1,0c-0.1,2.3-0.2,5.2-0.3,8.7S77,15.3,77,18.2c-0.5,0-0.8,0-1.2,0C75.5,18.2,75.1,18.2,74.6,18.2z
		 M77.2,10.6l1-3.3L79,4.7c0.5,0,1,0,1.2,0c0.4,0,0.8,0,1.4,0l-1.2,3.4c-0.3,0.8-0.6,1.6-0.9,2.6c0.3,1.1,0.9,3.7,2,7.6
		c-0.5,0-0.9,0-1.3,0c-0.4,0-0.8,0-1.3,0l-0.4-1.7c-0.1-0.6-0.2-1.1-0.3-1.5c0-0.2-0.3-1.2-0.8-3.3L77.2,10.6z"/>
	<path class="st4" d="M82.2,18.2c0.1-1.1,0.1-2,0.1-2.7c0-0.7,0.1-1.6,0.1-2.7s0-2.3,0.1-3.6c0-1.3,0-2.9,0-4.6c0.5,0,0.9,0,1.2,0
		c0.3,0,0.7,0,1.2,0c-0.1,1.7-0.1,3.1-0.1,4.4c0,1.3,0,2.6-0.1,4c0,2.5,0,4.2,0,5.1c-0.5,0-0.9,0-1.2,0
		C83.2,18.2,82.8,18.2,82.2,18.2z M82.6,3c0-1.1,0-1.9,0-2.5c0-0.2,0-0.4,0-0.7c0.5,0,0.9,0,1.2,0c0.4,0,0.8,0,1.2,0
		c0,0.3,0,0.5,0,0.7l0,1.6c0,0.2,0,0.5,0,0.9c-0.4,0-0.8,0-1.1,0C83.4,2.9,83,2.9,82.6,3z"/>
	<path class="st4" d="M29.7,36.9l0.5-1.4l3-9.7l0.3-1.1c0.1-0.3,0.2-0.8,0.4-1.4c0.7,0,1.2,0,1.5,0c0.6,0,1.1,0,1.5,0l0.9,4.1l1.7,8
		l0.3,1.5c-0.7,0-1.1,0-1.2,0c-0.3,0-0.8,0-1.5,0c-0.2-1.1-0.4-2.4-0.7-3.9h-3c-0.3,1.2-0.7,2.5-1.1,3.9c-0.7,0-1.2,0-1.3,0
		C30.9,36.9,30.4,36.9,29.7,36.9z M34.3,30.1h1.8c-0.5-2.3-0.7-3.6-0.7-3.9c-0.3,1-0.5,1.8-0.7,2.4L34.3,30.1z"/>
	<path class="st4" d="M40.5,36.9l0.2-4.4l0.1-2.5c0-0.5,0-0.9,0-1.4c0-0.5,0-1.1,0-1.8c0.5,0,0.9,0,1.1,0c0.3,0,0.7,0,1.1,0l0,1.1
		c0.2-0.3,0.3-0.5,0.4-0.7c0.1-0.1,0.2-0.3,0.3-0.4c0.1-0.1,0.3-0.2,0.4-0.3c0.1-0.1,0.3-0.1,0.4-0.1c0.1,0,0.3,0,0.5,0.1
		c0,0.7,0,1.3,0,1.8l0,1.5c-0.2-0.1-0.4-0.2-0.6-0.2c-0.2,0-0.4,0.1-0.6,0.2c-0.2,0.1-0.3,0.3-0.5,0.5c-0.1,0.2-0.2,0.5-0.3,0.9
		c-0.1,0.4-0.1,0.9-0.2,1.7c0,0.8,0,1.6,0,2.6c0,0.3,0,0.8,0,1.3c-0.4,0-0.8,0-1.1,0C41.3,36.9,40.9,36.9,40.5,36.9z"/>
	<path class="st4" d="M50.1,34c-0.1,0.6-0.1,1.1-0.2,1.6l-0.1,1.2c-0.4,0.1-0.7,0.2-0.9,0.3c-0.2,0-0.4,0.1-0.6,0.1
		c-0.3,0-0.6,0-0.9-0.1c-0.3-0.1-0.5-0.3-0.6-0.5s-0.3-0.5-0.4-0.9c-0.1-0.3-0.1-0.7-0.1-1.1c0-0.1,0-0.2,0-0.4c0-0.2,0-0.5,0-1.1
		l0.1-3.4h-0.9c0-0.5,0-1.1,0.1-1.8l0-0.9h1c0-0.3,0.1-1,0.1-2l1-0.3c0.2-0.1,0.6-0.2,1.2-0.5c0,0.9,0,1.8-0.1,2.8h1.3
		c0,1.4,0,2.3,0,2.7h-1.4l-0.1,2.5c0,0.4,0,0.6,0,0.7c0,0.3,0,0.6,0.1,0.8c0,0.2,0.1,0.4,0.2,0.5c0.1,0.1,0.2,0.1,0.3,0.1
		c0.1,0,0.2,0,0.3,0C49.6,34.2,49.8,34.1,50.1,34z"/>
	<path class="st4" d="M53.8,36.7c-0.1-1.4-0.1-2.5-0.2-3.4c0.4,0.3,0.8,0.6,1.2,0.7c0.3,0.1,0.6,0.2,0.9,0.2c0.3,0,0.6-0.1,0.8-0.3
		c0.2-0.2,0.3-0.4,0.3-0.8c0-0.1,0-0.2,0-0.3c0-0.1-0.1-0.2-0.1-0.3c-0.1-0.1-0.1-0.3-0.2-0.4l-1.1-1.6c-0.3-0.4-0.4-0.6-0.5-0.8
		c-0.2-0.3-0.4-0.7-0.5-0.9c-0.1-0.3-0.2-0.6-0.3-0.9c-0.1-0.3-0.1-0.6-0.1-1c0-0.4,0-0.8,0.1-1.2c0.1-0.4,0.2-0.8,0.4-1.1
		c0.2-0.3,0.4-0.6,0.7-0.9c0.3-0.2,0.6-0.4,0.9-0.5c0.3-0.1,0.6-0.1,1-0.1c0.7,0,1.4,0.1,2.2,0.4c0,0.5,0,0.9,0,1.3
		c0,0.4,0.1,1,0.1,2c-0.4-0.2-0.7-0.4-1-0.5c-0.3-0.1-0.6-0.1-0.8-0.1c-0.3,0-0.6,0.1-0.8,0.3c-0.2,0.2-0.3,0.4-0.3,0.7
		c0,0.1,0,0.3,0,0.4c0,0.1,0.1,0.3,0.2,0.4c0.1,0.2,0.2,0.4,0.3,0.6c0.1,0.2,0.4,0.5,0.7,0.9l0.4,0.6c0.1,0.2,0.3,0.4,0.4,0.6
		c0.1,0.2,0.3,0.5,0.4,0.7c0.1,0.2,0.2,0.5,0.2,0.7c0.1,0.2,0.1,0.4,0.1,0.6c0,0.2,0,0.4,0,0.7c0,0.6-0.1,1.2-0.3,1.7
		c-0.2,0.5-0.4,1-0.7,1.3c-0.3,0.3-0.7,0.6-1,0.7c-0.4,0.1-0.8,0.2-1.2,0.2C55.6,37.1,54.8,37,53.8,36.7z"/>
	<path class="st4" d="M64.9,34c-0.1,0.6-0.1,1.1-0.2,1.6l-0.1,1.2c-0.4,0.1-0.7,0.2-0.9,0.3c-0.2,0-0.4,0.1-0.6,0.1
		c-0.3,0-0.6,0-0.9-0.1c-0.3-0.1-0.5-0.3-0.6-0.5c-0.2-0.3-0.3-0.5-0.4-0.9c-0.1-0.3-0.1-0.7-0.1-1.1c0-0.1,0-0.2,0-0.4
		c0-0.2,0-0.5,0-1.1l0.1-3.4h-0.9c0-0.5,0-1.1,0.1-1.8l0-0.9h1c0-0.3,0.1-1,0.1-2l1-0.3c0.2-0.1,0.6-0.2,1.2-0.5
		c0,0.9,0,1.8-0.1,2.8h1.3c0,1.4,0,2.3,0,2.7h-1.4l-0.1,2.5c0,0.4,0,0.6,0,0.7c0,0.3,0,0.6,0.1,0.8c0,0.2,0.1,0.4,0.2,0.5
		c0.1,0.1,0.2,0.1,0.3,0.1c0.1,0,0.2,0,0.3,0C64.4,34.2,64.6,34.1,64.9,34z"/>
	<path class="st4" d="M69.1,26.5c0.5,0,1,0.1,1.4,0.4c0.4,0.3,0.8,0.6,1.1,1.1c0.3,0.5,0.5,1,0.7,1.7c0.1,0.6,0.2,1.3,0.2,2
		c0,0.7-0.1,1.4-0.2,2c-0.1,0.6-0.4,1.2-0.7,1.8c-0.3,0.6-0.7,1-1.2,1.3c-0.5,0.3-1,0.4-1.5,0.4c-0.5,0-1-0.1-1.4-0.4
		c-0.5-0.2-0.8-0.6-1.2-1.1c-0.3-0.5-0.5-1-0.7-1.7s-0.2-1.3-0.2-2.1c0-0.7,0.1-1.4,0.2-2.1c0.2-0.7,0.4-1.2,0.7-1.8
		c0.3-0.5,0.7-0.9,1.2-1.2C68.1,26.6,68.6,26.5,69.1,26.5z M69.1,29.4c-0.3,0-0.5,0.1-0.7,0.3c-0.2,0.2-0.3,0.5-0.4,1
		c-0.1,0.4-0.2,0.9-0.2,1.4c0,0.7,0.1,1.3,0.3,1.7c0.2,0.4,0.5,0.6,0.8,0.6c0.2,0,0.5-0.1,0.7-0.3c0.2-0.2,0.3-0.6,0.4-1
		c0.1-0.4,0.2-0.9,0.2-1.4c0-0.4,0-0.8-0.1-1.1c-0.1-0.3-0.2-0.6-0.4-0.8C69.5,29.5,69.3,29.4,69.1,29.4z"/>
	<path class="st4" d="M73.4,36.9l0.2-4.4l0.1-2.5c0-0.5,0-0.9,0-1.4c0-0.5,0-1.1,0-1.8c0.5,0,0.9,0,1.1,0c0.3,0,0.7,0,1.1,0l0,1.1
		c0.2-0.3,0.3-0.5,0.4-0.7c0.1-0.1,0.2-0.3,0.3-0.4c0.1-0.1,0.3-0.2,0.4-0.3c0.1-0.1,0.3-0.1,0.4-0.1c0.1,0,0.3,0,0.5,0.1
		c0,0.7,0,1.3,0,1.8l0,1.5c-0.2-0.1-0.4-0.2-0.6-0.2c-0.2,0-0.4,0.1-0.6,0.2c-0.2,0.1-0.3,0.3-0.5,0.5c-0.1,0.2-0.2,0.5-0.3,0.9
		c-0.1,0.4-0.1,0.9-0.2,1.7c0,0.8,0,1.6,0,2.6c0,0.3,0,0.8,0,1.3c-0.4,0-0.8,0-1.1,0C74.3,36.9,73.9,36.9,73.4,36.9z"/>
	<path class="st4" d="M84.5,33.9c-0.1,0.4-0.1,1.4-0.3,2.9c-0.5,0.2-0.8,0.3-1.1,0.3c-0.3,0.1-0.6,0.1-0.9,0.1
		c-0.5,0-0.9-0.1-1.3-0.2c-0.4-0.1-0.7-0.3-1-0.6c-0.3-0.3-0.5-0.6-0.7-1c-0.2-0.4-0.3-0.9-0.4-1.5c-0.1-0.6-0.2-1.2-0.2-1.8
		c0-0.8,0.1-1.7,0.3-2.5c0.2-0.8,0.5-1.4,0.8-1.9c0.3-0.5,0.7-0.8,1.1-1c0.4-0.2,0.8-0.3,1.3-0.3c0.4,0,0.9,0.1,1.3,0.3
		c0.4,0.2,0.8,0.5,1,0.9c0.3,0.4,0.5,0.9,0.6,1.5c0.1,0.6,0.2,1.1,0.2,1.8c0,0.4,0,0.8-0.1,1.3l-4.1,0c0,0.1,0,0.2,0,0.3
		c0,0.7,0.2,1.2,0.5,1.6c0.3,0.3,0.7,0.5,1.1,0.5c0.3,0,0.6-0.1,0.9-0.2C83.6,34.3,84,34.1,84.5,33.9z M80.8,30.7h1.9
		c0-0.1,0-0.2,0-0.3c0-0.3,0-0.6-0.1-0.9c-0.1-0.2-0.2-0.4-0.3-0.5c-0.1-0.1-0.3-0.2-0.5-0.2c-0.1,0-0.2,0-0.3,0.1
		c-0.1,0.1-0.2,0.2-0.3,0.3c-0.1,0.1-0.2,0.3-0.2,0.4c-0.1,0.2-0.1,0.3-0.1,0.5C80.9,30.2,80.9,30.4,80.8,30.7z"/>
	<path class="st2" d="M18.6,38c3.4-3.9,6.3-9.9,6.3-16.6c0-10.2-9.1-18.7-11.5-20.8V18c1.6,0.2,2.9,1.6,2.9,3.3c0,1.6-1.2,3-2.7,3.3
		c-0.3-0.1-0.5-0.1-0.8-0.1c-0.2,0-0.4,0-0.7,0.1c-1.5-0.4-2.6-1.7-2.6-3.2c0-1.6,1.2-3,2.7-3.3V0.6C9.9,2.6,0.7,11.2,0.7,21.4
		C0.7,28.1,3.6,34.1,7,38c-0.5,0.6-0.9,1.3-1.1,2c0.6-0.5,1.2-1,2-1.3c1.1,2.4,2.9,3.9,4.9,3.9c2,0,3.8-1.6,4.9-3.9
		c0.7,0.4,1.4,0.8,2,1.3C19.4,39.2,19.1,38.6,18.6,38z"/>
</g>
</svg>
